<svg xmlns="http://www.w3.org/2000/svg" id="dibtcodeLogo" version="1.1" viewBox="0 0 550 400">
					<path className="st0" style="fill: #ef4026;" d="M24.721519,363.5001289V25.1520725h500v250.6108008H126.0321262l-101.3106072,87.7372555ZM27.000062,27.4306155v331.0852006l98.1820609-85.0314857h397.2608531V27.4306155H27.000062Z"/>
					<g>
						<path className="st0" style="fill: #ef4026;" d="M128.4152508,209.0598627c-7.4074898,0-13.8025411-1.8513162-19.1940544-5.5539485-5.3915133-3.6981821-9.5569747-8.9272602-12.4963841-15.6783338-2.9394094-6.7510736-4.4102267-14.757126-4.4102267-24.0137069,0-9.1497741,1.4708173-17.0979729,4.4102267-23.8534968,2.9394094-6.7510736,7.1048708-12.0068534,12.4963841-15.7628891s11.7865646-5.6340535,19.1940544-5.6340535c7.1894261,0,13.4220422,2.1806368,18.7045237,6.5330099,5.2824815,4.3568234,9.067444,9.9107719,11.3548875,16.6618455v-50.6397276h4.8997575v115.9831779h-3.5936005l-.4895307-21.8909237c-2.3964754,6.6442669-6.2637681,12.2827707-11.5996529,16.9066109-5.3358848,4.6327407-11.7620881,6.9424356-19.2763846,6.9424356ZM128.4152508,204.1601053c5.9878507,0,11.2436305-1.7133575,15.7651143-5.1445228,4.5170334-3.4311653,8.0305289-8.1662624,10.5360361-14.2141919,2.5032821-6.0434792,3.7582608-13.0393182,3.7582608-20.987517,0-7.841392-1.2549787-14.7838277-3.7582608-20.8317572-2.5055072-6.0434792-6.0190027-10.805278-10.5360361-14.2898467-4.5214837-3.4845687-9.7772635-5.2290781-15.7651143-5.2290781-9.4746445,0-16.9889411,3.649229-22.5428896,10.9432367-5.5539485,7.298458-8.3309228,17.1024232-8.3309228,29.4074453,0,12.4118288,2.7769743,22.2424957,8.3309228,29.4831001,5.5539485,7.2450546,13.068245,10.8631317,22.5428896,10.8631317Z"/>
						<path className="st0" style="fill: #ef4026;" d="M268.819423,160.3827082c-2.4498787-4.1387597-6.1258094-7.4052647-11.0255669-9.8039652-3.47539-1.6975034-7.5254222-2.7625108-12.0944683-3.2564918,3.4011259-.5891057,6.478494-1.542578,9.1528337-2.9516477,4.1387597-2.1761866,7.2962328-5.1712245,9.4746445-8.9806635,2.1784117-3.8138893,3.2687301-8.0594557,3.2687301-12.7455998,0-10.0175786-3.3243586-17.7744153-9.9664004-23.2749605-6.6420418-5.5005452-16.33475-8.2508177-29.0758995-8.2508177h-33.8154469v115.9831779h37.5714826c12.7433746,0,22.6252197-2.8036759,29.6499855-8.4110278,7.0247658-5.6118021,10.5360361-13.5332992,10.5360361-23.7689415,0-5.5539485-1.2238268-10.4003026-3.6759307-14.5390623ZM212.2163212,107.4555371h16.6640707c7.075944,0,12.2760953,1.4151888,15.6004539,4.2455664,3.3199083,2.8348279,4.9820876,6.8623306,4.9820876,12.0869585,0,5.2290781-1.6621793,9.2610311-4.9820876,12.0914087-3.3243586,2.8303776-8.5245099,4.2455664-15.6004539,4.2455664h-16.6640707v-32.6695ZM248.9734027,186.2744329c-3.5958256,2.8882312-9.0963708,4.3835251-16.4994103,4.4903318h-20.2576712v-34.4674128h20.2576712c7.187201,0,12.6321177,1.5531475,16.33475,4.6549921,3.7004072,3.1062949,5.5539485,7.4319664,5.5539485,12.9859149,0,5.3403351-1.7956877,9.4523931-5.3892882,12.3361741Z"/>
						<path className="st0" style="fill: #ef4026;" d="M295.6901223,207.1017399v-4.5748871h71.8786854v4.5748871h-71.8786854ZM297.3255999,125.096444v-4.5748871h39.20251v4.5748871h-39.20251ZM331.303482,104.5139025v-11.4372177h5.5539485v11.4372177h-5.5539485ZM331.6328027,207.1017399v-86.5801829h4.8953072v86.5801829h-4.8953072Z"/>
						<path className="st0" style="fill: #ef4026;" d="M387.1722878,125.096444v-4.5748871h71.87201v4.5748871h-71.87201ZM435.8494423,207.1017399c-5.6607552,0-10.1288356-1.6332525-13.3953406-4.8997575-3.266505-3.266505-4.8997575-7.7301351-4.8997575-13.3953406v-88.5383058h4.8997575v89.1924968c0,4.1387597,1.1170201,7.3474111,3.34661,9.6348546,2.2340402,2.2874435,5.3670368,3.4311653,9.3989898,3.4311653h23.8445962v4.5748871h-23.1948555Z"/>
					</g>
					<g>
						<path className="st0" style="fill: #ef4026;" d="M209.6083706,374.1896996c-4.4925569,0-8.0372043-1.3528849-10.6317171-4.0675552-2.5945128-2.7146703-3.8939943-6.3460982-3.8939943-10.8942836v-7.7879887c0-2.9193832-.3782737-5.322534-1.1370463-7.218353s-1.8513162-3.3288089-3.2798558-4.2900692c-1.4307648-.9612603-3.1062949-1.4418905-5.0310407-1.4418905v-4.2010636c1.9247458,0,3.6002759-.4806302,5.0310407-1.4418905,1.4285396-.9612603,2.5210832-2.4031508,3.2798558-4.3256714.7587726-1.9314212,1.1370463-4.3167709,1.1370463-7.1827507v-7.7790881c0-4.6104893,1.2994815-8.2597183,3.8939943-10.9387864,2.5945128-2.6879687,6.1391602-4.0230524,10.6317171-4.0230524h2.4498787v4.0230524c-4.6082642-.0623039-7.8903451.8455531-9.8440177,2.7146703-1.9536726,1.8602167-2.9305089,4.5748871-2.9305089,8.1351105v8.0461049c0,4.494782-.8900559,7.9659999-2.6679424,10.4136535-1.7801117,2.4476536-4.0119267,3.8806435-6.69322,4.2900692v.080105c2.7391469.4094257,4.9865379,1.8691173,6.7354977,4.3790748,1.7511849,2.5099575,2.6256648,6.0345787,2.6256648,10.5827641v8.0550055c0,3.4979195.9768363,6.1769876,2.9305089,8.0461049s5.2357535,2.8036759,9.8440177,2.8036759v4.0230524h-2.4498787Z"/>
						<path className="st0" style="fill: #ef4026;" d="M260.5284659,365.2624394c-4.3746245,0-8.063906-1.0591665-11.0678445-3.1953005-3.0039385-2.1272335-5.2936072-5.0288156-6.869006-8.7047462-1.5731737-3.6759307-2.3608731-7.7879887-2.3608731-12.3361741s.7876994-8.6424423,2.3608731-12.2916713c1.5753989-3.6403284,3.8650675-6.5419105,6.869006-8.7047462,3.0039385-2.1539352,6.69322-3.2398033,11.0678445-3.2398033,3.266505,0,6.1391602.6764424,8.6179658,2.0115262,2.4788055,1.3439843,4.5348346,3.1863999,6.168087,5.5183463s2.8014508,5.0466167,3.5001446,8.1351105l-4.461405.3471218c-.9345586-3.7916379-2.581162-6.7199217-4.9442603-8.7937518-2.3630983-2.0649296-5.322534-3.1062949-8.8805323-3.1062949-4.8419038,0-8.6913954,1.7979128-11.5484747,5.3848379-2.8593044,3.5869251-4.2878441,8.5000334-4.2878441,14.7393249,0,6.2481921,1.4285396,11.1613004,4.2878441,14.7482255,2.8570793,3.5869251,6.7065708,5.3759373,11.5484747,5.3759373,3.5579983,0,6.5908636-1.1036693,9.0985959-3.3199083s4.1699117-5.3670368,4.988763-9.4523931l4.461405.3471218c-.6986938,3.2131016-1.880243,6.0523798-3.5424223,8.5356356-1.6621793,2.4743553-3.7627111,4.4324781-6.2993703,5.8565675-2.5388843,1.4329899-5.4404664,2.1450346-8.7069714,2.1450346Z"/>
						<path className="st0" style="fill: #ef4026;" d="M319.5858967,365.2624394c-4.0809061,0-7.6255535-.987962-10.629492-2.9727865-3.0061636-1.9848245-5.3247591-4.7795999-6.9557865-8.4021272-1.6332525-3.6136268-2.4498787-7.903696-2.4498787-12.861307s.8166262-9.2387797,2.4498787-12.861307c1.6310273-3.6136268,3.9496228-6.4173027,6.9557865-8.4021272,3.0039385-1.975924,6.5485859-2.9727865,10.629492-2.9727865s7.6233284.9968626,10.6317171,2.9727865c3.0039385,1.9848245,5.322534,4.7885005,6.9557865,8.4021272,1.6332525,3.6225273,2.4521039,7.903696,2.4521039,12.861307s-.8188514,9.2476803-2.4521039,12.861307c-1.6332525,3.6225273-3.951848,6.4173027-6.9557865,8.4021272-3.0083888,1.9848245-6.5508111,2.9727865-10.6317171,2.9727865ZM319.5858967,361.1503814c4.8997575,0,8.7180971-1.7890123,11.4594691-5.3759373,2.741372-3.5869251,4.112058-8.5000334,4.112058-14.7482255,0-6.2392915-1.370686-11.1523998-4.112058-14.7393249s-6.5597116-5.3848379-11.4594691-5.3848379-8.7203222,1.7979128-11.4616942,5.3848379-4.112058,8.5000334-4.112058,14.7393249c0,6.2481921,1.370686,11.1613004,4.112058,14.7482255s6.5619368,5.3759373,11.4616942,5.3759373Z"/>
						<path className="st0" style="fill: #ef4026;" d="M377.5952868,365.2624394c-4.0230524,0-7.4942703-.987962-10.4136535-2.9727865s-5.1623239-4.7795999-6.7377228-8.4021272c-1.5753989-3.6136268-2.358648-7.903696-2.358648-12.861307,0-4.8953072.7832491-9.1586747,2.358648-12.7723015s3.8183396-6.4262032,6.7377228-8.44663c2.9193832-2.0115262,6.390601-3.0172893,10.4136535-3.0172893,3.6759307,0,6.8534301,1.0413653,9.5369484,3.1062949,2.6835184,2.0738301,4.637191,4.6282904,5.8610178,7.6544803v-25.4555973h4.2010636v62.1169978h-3.4979195l-.2670168-10.1466367c-1.2816804,3.2042011-3.2932066,5.8743686-6.0345787,8.0016021-2.741372,2.136134-6.007877,3.1953005-9.7995149,3.1953005ZM377.7688477,361.1503814c3.0306402,0,5.7008077-.8455531,8.0060524-2.5366592s4.0853564-4.0408536,5.3403351-7.0403418c1.2505285-3.0083888,1.8780178-6.5241094,1.8780178-10.5471618s-.6274894-7.5387731-1.8780178-10.5382613c-1.2549787-3.0083888-3.0350905-5.3492357-5.3403351-7.0492423-2.3052447-1.6911061-5.0021139-2.5366592-8.0906077-2.5366592-4.6727932,0-8.3576244,1.8068134-11.0722948,5.4293407-2.7102201,3.6136268-4.0675552,8.5178345-4.0675552,14.6948221,0,6.1858882,1.3573352,11.0811953,4.0675552,14.7037227,2.7146703,3.6136268,6.4351038,5.4204401,11.1568501,5.4204401Z"/>
						<path className="st0" style="fill: #ef4026;" d="M441.1986779,365.2624394c-4.4324781,0-8.1618122-1.0591665-11.1969026-3.1953005-3.0350905-2.1272335-5.3492357-5.0288156-6.9557865-8.7047462-1.6065508-3.6759307-2.4076011-7.7879887-2.4076011-12.3361741s.7743486-8.6424423,2.3230458-12.2916713c1.5397966-3.6403284,3.8183396-6.5419105,6.8222781-8.7047462,3.0039385-2.1539352,6.69322-3.2398033,11.0678445-3.2398033,4.254467,0,7.8769943,1.0502659,10.8497808,3.1507977s5.2201776,4.9487105,6.7377228,8.5356356c1.5130949,3.5869251,2.2740927,7.6544803,2.2740927,12.2026657v1.3973877h-35.6111346c.1735609,6.007877,1.704457,10.6895708,4.5971385,14.0450813,2.883781,3.3555106,6.7199217,5.0288156,11.4995216,5.0288156,3.7382346,0,6.8000267-.9167575,9.1898267-2.7502726,2.3898-1.8424156,4.0275027-4.2455664,4.8997575-7.218353l4.5481854.3471218c-1.1659732,3.9696491-3.3644111,7.2450546-6.6042144,9.8440177-3.2398033,2.5900625-7.2450546,3.8895441-12.0335551,3.8895441ZM425.1020179,338.3204488h31.0584989c-.2314145-5.482744-1.6911061-9.7639127-4.3701742-12.8257048-2.6879687-3.0617921-6.3282971-4.5926882-10.9387864-4.5926882-4.494782,0-8.1351105,1.5308961-10.9387864,4.5926882-2.7947754,3.0617921-4.4013262,7.3429608-4.8107519,12.8257048Z"/>
						<path className="st0" style="fill: #ef4026;" d="M489.9381363,374.1896996h-2.4521039v-4.0230524c4.606039,0,7.8903451-.9345586,9.8395674-2.8036759,1.9581229-1.8691173,2.9371843-4.5481854,2.9371843-8.0461049v-8.0550055c0-4.5481854.8722547-8.0728066,2.6212145-10.5827641s3.9963508-3.9696491,6.7377228-4.3790748v-.080105c-2.6835184-.4094257-4.9175586-1.8424156-6.69322-4.2900692-1.7801117-2.4476536-2.6657173-5.9188714-2.6657173-10.4136535v-8.0461049c0-3.5602234-.9790614-6.2748937-2.9371843-8.1351105-1.9492223-1.8691173-5.2335284-2.7769743-9.8395674-2.7146703v-4.0230524h2.4521039c4.4858815,0,8.0327541,1.3350838,10.6272669,4.0230524,2.5945128,2.6790681,3.8939943,6.3282971,3.8939943,10.9387864v7.7790881c0,2.8659798.3960749,5.2513295,1.179324,7.1827507.7921497,1.9225206,1.8824681,3.3644111,3.2843061,4.3256714,1.3973877.9612603,3.0617921,1.4418905,4.9843128,1.4418905v4.2010636c-1.9225206,0-3.5869251.4806302-4.9843128,1.4418905-1.401838.9612603-2.4921564,2.3942502-3.2843061,4.2900692-.7832491,1.895819-1.179324,4.2989698-1.179324,7.218353v7.7879887c0,4.5481854-1.2994815,8.1796133-3.8939943,10.8942836-2.5945128,2.7146703-6.1413854,4.0675552-10.6272669,4.0675552Z"/>
					</g>
			</svg>