<?xml version="1.0" encoding="UTF-8"?>
<svg id="Layer_1" xmlns="http://www.w3.org/2000/svg" version="1.1" viewBox="0 0 1000 1000">
  <!-- Generator: Adobe Illustrator 29.8.3, SVG Export Plug-In . SVG Version: 2.1.1 Build 3)  -->
  <defs>
    <style>
      .st0 {
        fill: #fff;
      }

      .st1 {
        fill: #f23d25;
      }
    </style>
  </defs>
  <polygon class="st1" points="1005.1 0 1005.1 760.4 291.4 760.4 0 1007.4 0 0 1005.1 0"/>
  <path class="st0" d="M325.1,588.8c-26.8,0-50-6.7-69.5-20.1-19.5-13.4-34.6-32.3-45.2-56.8-10.6-24.4-16-53.4-16-87s5.3-61.9,16-86.4c10.6-24.4,25.7-43.5,45.2-57.1,19.5-13.6,42.7-20.4,69.5-20.4s48.6,7.9,67.7,23.7c19.1,15.8,32.8,35.9,41.1,60.3v-183.4h17.7v420h-13l-1.8-79.3c-8.7,24.1-22.7,44.5-42,61.2-19.3,16.8-42.6,25.1-69.8,25.1ZM325.1,571.1c21.7,0,40.7-6.2,57.1-18.6,16.4-12.4,29.1-29.6,38.2-51.5,9.1-21.9,13.6-47.2,13.6-76s-4.5-53.5-13.6-75.4c-9.1-21.9-21.8-39.1-38.2-51.7-16.4-12.6-35.4-18.9-57.1-18.9-34.3,0-61.5,13.2-81.6,39.6-20.1,26.4-30.2,61.9-30.2,106.5s10.1,80.5,30.2,106.8c20.1,26.2,47.3,39.3,81.6,39.3Z"/>
  <path class="st0" d="M833.5,412.6c-8.9-15-22.2-26.8-39.9-35.5-12.6-6.1-27.2-10-43.8-11.8,12.3-2.1,23.5-5.6,33.1-10.7,15-7.9,26.4-18.7,34.3-32.5,7.9-13.8,11.8-29.2,11.8-46.2,0-36.3-12-64.4-36.1-84.3-24.1-19.9-59.1-29.9-105.3-29.9h-122.4v420h136c46.1,0,81.9-10.2,107.4-30.5,25.4-20.3,38.2-49,38.2-86.1s-4.4-37.7-13.3-52.6ZM628.5,220.9h60.3c25.6,0,44.5,5.1,56.5,15.4,12,10.3,18,24.8,18,43.8s-6,33.5-18,43.8c-12,10.2-30.9,15.4-56.5,15.4h-60.3v-118.3ZM761.6,506.3c-13,10.5-32.9,15.9-59.7,16.3h-73.4v-124.8h73.4c26,0,45.7,5.6,59.1,16.9,13.4,11.2,20.1,26.9,20.1,47s-6.5,34.2-19.5,44.7Z"/>
</svg>